# xmcd
# Track frame offsets:
# 150
# 9410
# 22617
# 33712
# 48382
# 61417
# 73430
# 89757
# 102845
# 119607
# 135242
# 148770
# 163927
# 182112
# 194300
# 210250
# 225175
# 237887
# 256735
# 274185
#
# Disc length: 3969 seconds
# Revision: 2
# Processed by: cddbd v1.4PL0 Copyright (c) Steve Scherf et al.
# Submitted via: VisiTrax 2.9.5.180 - For more info visit www.synapsa.com
#
DISCID=170f7f14
DTITLE=Various Artist - Country Complete  Volume 4
DYEAR=1997
DGENRE=Country
TTITLE0=Charlie Pride - Kiss An Angel Good Morning
TTITLE1=Dolly Parton - Here You Come Again
TTITLE2=Willie Nelson - On The Road Again
TTITLE3=Jeannie Pruett - Satin Sheets
TTITLE4=Ray Stevens - Misty
TTITLE5=Loretta Lynn - One's On The Way
TTITLE6=Charlie Daniels Band - The Devil Went Down To Georgia
TTITLE7=Olivia Newton-John - If Not For You
TTITLE8=Don McLean - Crying
TTITLE9=Bonnie Tyler - It's A Heartache
TTITLE10=John Stewart - July, You're A Woman
TTITLE11=Jesse Colter - I'm Not Lisa
TTITLE12=Kris Kristofferson - Me And Bobby McGee
TTITLE13=Susan Raye - Desperado
TTITLE14=The Band - The Night They Drove Old Dixie Down
TTITLE15=Cristy Lane - One Day At A Time
TTITLE16=Dr Hook - Only Sixteen
TTITLE17=Juice Newton - Angel Of The Morning
TTITLE18=Dobie Gray - Drift Away
TTITLE19=The Nitty Gritty Dirt Band - Mr Bojangles
EXTD=EMI
EXTT0=
EXTT1=
EXTT2=
EXTT3=
EXTT4=
EXTT5=
EXTT6=
EXTT7=
EXTT8=
EXTT9=
EXTT10=
EXTT11=
EXTT12=
EXTT13=
EXTT14=
EXTT15=
EXTT16=
EXTT17=
EXTT18=
EXTT19=
PLAYORDER=
